<svg width="1336" height="460" viewBox="0 0 1336 460" fill="none" xmlns="http://www.w3.org/2000/svg">
<path fill-rule="evenodd" clip-rule="evenodd" d="M212.944 68.25C212.23 70.037 210.552 73.975 209.215 77C207.878 80.025 206.158 83.963 205.392 85.75C201.826 94.076 201.068 95.822 198.992 100.5C197.771 103.25 195.923 107.412 194.886 109.75C193.849 112.088 192.1 116.025 191 118.5C186.427 128.789 184.716 132.67 183.394 135.75C182.628 137.537 181.372 140.463 180.606 142.25C179.312 145.265 178.016 148.201 172.772 160C165.376 176.642 162.869 182.314 161.281 186C160.452 187.925 158.475 192.333 156.887 195.795C155.299 199.257 154 202.281 154 202.515C154 202.922 151.471 208.666 146.523 219.5C144.213 224.556 143.789 225.527 137.992 239C136.217 243.125 133.867 248.525 132.769 251C129.105 259.259 127.017 263.962 125 268.5C120.478 278.674 118.713 282.675 117.281 286C116.452 287.925 114.475 292.333 112.887 295.795C111.299 299.257 110 302.281 110 302.515C110 302.749 108.925 305.317 107.612 308.22C105.331 313.263 103.174 318.092 98.7741 328C97.6751 330.475 95.7011 334.876 94.3881 337.78C91.8381 343.417 91.435 345.369 92.93 344.833C93.441 344.65 100.529 337.992 108.68 330.039C116.831 322.085 141.95 297.576 164.5 275.573C231.161 210.531 239.314 202.555 265.267 176.992C278.889 163.575 290.426 152.35 290.905 152.049C291.385 151.747 310.306 133.3 332.953 111.055C355.599 88.81 375.225 69.594 376.564 68.353C377.904 67.111 379 65.849 379 65.548C379 65.246 341.93 65 296.621 65H214.243L212.944 68.25ZM384.47 151.224C384.202 151.926 384.1 188.725 384.242 233L384.5 313.5L400.272 313.776C412.781 313.994 416.15 313.772 416.561 312.701C416.846 311.959 417.174 296.347 417.29 278.009C417.428 256.032 417.854 244.549 418.538 244.321C419.109 244.13 428.109 254.631 438.538 267.655C448.967 280.679 457.964 291.822 458.531 292.417C459.099 293.013 463.283 298.113 467.831 303.75L476.098 314H496.049C507.022 314 515.996 313.663 515.99 313.25C515.981 312.52 511.062 306.045 506.677 300.99C505.48 299.61 502.481 296.01 500.014 292.99C497.546 289.971 495.29 287.275 495 287C494.71 286.725 492.454 284.029 489.986 281.01C487.519 277.99 484.541 274.39 483.369 273.01C482.198 271.629 475.456 263.525 468.387 255C461.319 246.475 454.292 238.15 452.773 236.5C451.253 234.85 450.007 232.687 450.005 231.694C450.002 230.701 452.137 227.285 454.75 224.105C457.363 220.924 463.304 213.637 467.953 207.911C472.602 202.185 476.664 197.275 476.98 197C477.296 196.725 483.605 189.075 491 180C498.395 170.925 504.689 163.275 504.986 163C507.239 160.919 514 152.002 514 151.111C514 150.335 508.272 150 495.015 150H476.03L447.859 185.25C432.365 204.637 419.534 220.687 419.344 220.917C417.907 222.656 417.437 215.501 417 185.168L416.5 150.5L400.728 150.224C388.66 150.014 384.843 150.249 384.47 151.224ZM1052.38 152.202C1051.9 152.972 1057.1 158.686 1066.82 168.085C1080.31 181.125 1081.76 182.832 1079.76 183.368C1078.52 183.701 1071.59 183.979 1064.36 183.986C1053.3 183.998 1051.12 184.251 1050.61 185.582C1049.81 187.648 1049.81 310.352 1050.61 312.418C1051.12 313.765 1053.49 314 1066.55 314C1075.14 314 1082.14 313.583 1082.47 313.052C1082.79 312.53 1083.04 276.22 1083.03 232.363C1083.01 169.56 1082.74 152.453 1081.75 151.827C1079.64 150.484 1053.23 150.822 1052.38 152.202ZM965.776 168.25L965.5 183.5L958.5 184L951.5 184.5L951.221 197.75L950.942 211H958.471H966V244.75C966 284.681 966.717 290.157 973.196 299.72C976.812 305.057 981.389 308.556 988.168 311.164C992.539 312.846 996.615 313.309 1010.78 313.735L1028.06 314.253L1027.78 300.377L1027.5 286.5L1016.27 286C1005.65 285.527 1004.89 285.351 1002.27 282.728L999.5 279.957L999.157 261.624L998.814 243.29L983.407 227.907C974.933 219.447 968 212.181 968 211.762C968 211.343 981.5 211 998 211H1028V197.5V184H1013.96H999.917L983.579 168.5C974.593 159.975 966.973 153 966.646 153C966.319 153 965.928 159.863 965.776 168.25ZM730 182.584C721.311 184.143 710.724 189.263 705 194.674C703.075 196.494 701.163 197.987 700.75 197.991C700.337 197.996 700 194.85 700 191V184H684.031H668.063L667.781 211.25C667.627 226.238 667.633 255.488 667.795 276.25L668.09 314H684.045H700V276.049C700 235.901 700.468 230.512 704.58 223.355C709.802 214.265 716.767 210.72 729.5 210.67C737.068 210.641 739.137 210.998 742.5 212.912C750.477 217.453 754.622 223.285 756.914 233.193C757.594 236.13 758 252.119 758 275.943V314H774.038H790.076L789.788 267.75C789.525 225.459 789.34 221.072 787.631 216.5C783.802 206.255 781.442 202.343 775.45 196.309C769.838 190.656 766.206 188.419 755.672 184.124C752.707 182.916 734.304 181.812 730 182.584ZM863 182.994C854.637 184.594 852.519 185.319 844.844 189.2C817.544 203.006 805.06 239.308 815.811 273.628C821.783 292.694 836.921 307.347 857.289 313.776C864.135 315.937 888.247 316.135 895.5 314.09C910.718 309.799 926.589 296.924 932.821 283.813C938.193 272.512 938.815 273 919.048 273H902.096L899.062 277.41C892.54 286.889 879.46 291.218 867.616 287.819C856.442 284.611 846 272.371 846 262.48V259.02L892.75 258.76L939.5 258.5L939.817 247.5C939.992 241.45 939.605 234.025 938.959 231C934.033 207.949 920.282 192.19 898.779 184.954C891.742 182.586 871.056 181.453 863 182.994ZM1154.5 182.954C1149.91 183.948 1141.81 187.042 1135.7 190.135C1129.18 193.433 1117.03 206.407 1113.35 214C1107.15 226.76 1105.87 232.78 1105.87 249C1105.87 265.223 1107.16 271.254 1113.35 283.991C1118.01 293.58 1128.26 303.959 1137.84 308.78C1149.5 314.648 1153.59 315.501 1170 315.491C1182.69 315.483 1185.31 315.189 1191 313.134C1202.54 308.966 1210.52 303.457 1217.76 294.672C1222.83 288.522 1227.86 278.518 1228.23 273.849L1228.5 270.5L1211.78 270.226L1195.06 269.952L1193.12 273.726C1190.65 278.512 1184.53 284.277 1180 286.086C1177.95 286.903 1173.18 287.455 1168.5 287.415C1159.27 287.336 1154.38 285.355 1148.51 279.303C1145.14 275.841 1144.32 274.433 1141.04 266.5C1139.27 262.219 1138.56 245.697 1139.81 237.728C1141.68 225.841 1146.68 217.926 1155.5 212.917C1160.72 209.951 1175.48 209.528 1181 212.187C1185.19 214.205 1191.15 220.241 1193.43 224.774L1195.08 228.048L1211.79 227.774L1228.5 227.5L1228.21 224C1227.41 214.24 1214.84 196.931 1203.89 190.512C1193.63 184.499 1187.16 182.866 1172 182.454C1164.57 182.252 1156.7 182.477 1154.5 182.954ZM521.25 183.689C517.263 183.908 514 184.44 514 184.871C514 185.628 517.575 194.775 520.693 202C521.524 203.925 522.557 206.4 522.989 207.5C523.421 208.6 525.817 214.45 528.314 220.5C530.812 226.55 534.724 236.225 537.009 242C539.294 247.775 541.848 254.075 542.684 256C543.52 257.925 544.608 260.512 545.102 261.75C545.596 262.988 546.404 265.012 546.898 266.25C547.392 267.488 548.477 270.075 549.31 272C550.143 273.925 553.789 282.911 557.412 291.97C563.654 307.575 565.071 313.388 563.16 315.55C562.698 316.072 561.719 318.075 560.984 320C560.249 321.925 558.377 326.324 556.824 329.775C555.271 333.226 554 336.25 554 336.495C554 336.74 552.826 339.542 551.392 342.72C548.824 348.412 547.103 352.346 544.381 358.75C540.788 367.204 539.717 369.666 538.718 371.77C537.995 373.293 537.972 374.372 538.646 375.046C539.261 375.661 545.843 375.945 555.563 375.776L571.473 375.5L573.544 371.5C574.683 369.3 577.128 363.675 578.978 359C580.827 354.325 583.614 347.676 585.17 344.225C586.727 340.774 588 336.941 588 335.708C588 334.185 584.464 329.942 576.98 322.483L565.96 311.5L582.576 311L599.192 310.5L602.591 302C604.461 297.325 606.397 292.6 606.893 291.5C609.09 286.633 610.995 282.116 612.974 277.081C614.146 274.1 615.941 269.825 616.963 267.581C617.986 265.336 620.248 259.9 621.992 255.5C623.735 251.1 625.8 246.037 626.581 244.25C627.361 242.462 628.64 239.537 629.422 237.75C630.204 235.962 631.814 232.025 633 229C635.235 223.299 636.304 220.776 639.884 212.761C641.048 210.154 642 207.812 642 207.556C642 207.299 644.025 202.348 646.5 196.554C648.975 190.759 651 185.554 651 184.986C651 184.305 645.17 184.046 633.894 184.226L616.787 184.5L614.297 191C610.811 200.094 606.148 212.541 603.901 218.75C599.895 229.814 597.776 235.572 597 237.5C596.557 238.6 595.251 242.088 594.097 245.25C592.944 248.412 591.056 253.588 589.903 256.75C588.749 259.913 587.444 263.4 587.003 264.5C586.563 265.6 585.652 267.962 584.98 269.75C583.549 273.554 582.434 273.897 581.73 270.75C581.454 269.512 579.801 264.675 578.057 260C572.988 246.412 571.36 241.971 568.525 234C567.058 229.875 565.484 225.6 565.026 224.5C564.25 222.634 563.045 219.375 558 205.5C549.393 181.83 550.798 184.002 544.081 183.991C541.011 183.987 536.25 183.827 533.5 183.637C530.75 183.447 525.237 183.47 521.25 183.689ZM864.329 211.093C861.485 212.186 857.279 214.904 854.983 217.132C850.614 221.373 846 230.307 846 234.529V237H876H906V233.622C906 224.25 897.676 214.544 886 210.302C880.76 208.398 870.349 208.778 864.329 211.093ZM226.5 260.4C223.75 262.201 216.55 266.829 210.5 270.684C204.45 274.539 193.875 281.282 187 285.669C180.125 290.056 172.137 295.122 169.25 296.927C163.748 300.366 163.389 300.94 164.976 303.764C165.513 304.719 169.286 312.475 173.361 321C177.435 329.525 183.691 342.575 187.263 350C195.217 366.533 207.009 391.162 211.309 400.225L214.5 406.949L298.583 406.975C344.829 406.989 382.909 406.757 383.206 406.461C383.502 406.165 350.39 372.409 309.622 331.449C258.939 280.526 234.868 257 233.5 257.051C232.4 257.092 229.25 258.599 226.5 260.4Z" fill="#272D2D"/>
</svg>
