<svg width="292" height="342" viewBox="0 0 292 342" fill="none" xmlns="http://www.w3.org/2000/svg">
<g clip-path="url(#clip0_648_114)">
<path fill-rule="evenodd" clip-rule="evenodd" d="M120.944 3.25C120.23 5.037 118.552 8.975 117.215 12C115.878 15.025 114.158 18.963 113.392 20.75C109.826 29.076 109.068 30.822 106.992 35.5C105.771 38.25 103.923 42.412 102.886 44.75C101.849 47.088 100.1 51.025 99 53.5C94.427 63.789 92.716 67.67 91.394 70.75C90.628 72.537 89.372 75.463 88.606 77.25C87.312 80.265 86.016 83.201 80.772 95C73.376 111.642 70.8691 117.314 69.2811 121C68.4521 122.925 66.475 127.333 64.887 130.795C63.299 134.257 62 137.281 62 137.515C62 137.922 59.471 143.666 54.523 154.5C52.213 159.556 51.7891 160.527 45.9921 174C44.2171 178.125 41.867 183.525 40.769 186C37.105 194.259 35.017 198.962 33 203.5C28.478 213.674 26.713 217.675 25.281 221C24.452 222.925 22.4751 227.333 20.8871 230.795C19.2991 234.257 18 237.281 18 237.515C18 237.749 16.925 240.317 15.612 243.22C13.331 248.263 11.1741 253.092 6.77405 263C5.67505 265.475 3.70105 269.876 2.38805 272.78C-0.16195 278.417 -0.56495 280.369 0.93005 279.833C1.44105 279.65 8.52905 272.992 16.68 265.039C24.831 257.085 49.95 232.576 72.5 210.573C139.161 145.531 147.314 137.555 173.267 111.992C186.889 98.575 198.426 87.35 198.905 87.049C199.385 86.747 218.306 68.3 240.953 46.055C263.599 23.81 283.225 4.594 284.564 3.353C285.904 2.111 287 0.848997 287 0.547997C287 0.245997 249.93 0 204.621 0H122.243L120.944 3.25ZM134.5 195.4C131.75 197.201 124.55 201.829 118.5 205.684C112.45 209.539 101.875 216.282 95 220.669C88.125 225.056 80.137 230.122 77.25 231.927C71.748 235.366 71.389 235.94 72.976 238.764C73.513 239.719 77.286 247.475 81.361 256C85.435 264.525 91.691 277.575 95.263 285C103.217 301.533 115.009 326.162 119.309 335.225L122.5 341.949L206.583 341.975C252.829 341.989 290.909 341.757 291.206 341.461C291.502 341.165 258.39 307.409 217.622 266.449C166.939 215.526 142.868 192 141.5 192.051C140.4 192.092 137.25 193.599 134.5 195.4Z" fill="#14532D"/>
</g>
<defs>
<clipPath id="clip0_648_114">
<rect width="292" height="342" fill="white"/>
</clipPath>
</defs>
</svg>